<?xml version="1.0" encoding="utf-8"?>
<svg viewBox="0 0 500 500" xmlns="http://www.w3.org/2000/svg">
  <path id="shape1" d="M 170.922 424.147 L 180.435 424.147 L 180.435 414.601 L 210.511 414.601 C 223.315 388.186 223.86 206.704 210.994 173.684 L 193.682 173.684 L 193.682 155.295 L 206.102 155.295 L 206.102 148.883 L 217.079 148.883 C 200.861 138.277 190.145 119.955 190.145 99.131 C 190.145 66.324 216.741 39.728 249.548 39.728 C 282.355 39.728 308.951 66.324 308.951 99.131 C 308.951 119.955 298.235 138.277 282.017 148.883 L 293.898 148.883 L 293.898 155.295 L 305.7 155.295 L 305.7 173.684 L 289.254 173.684 C 278.772 207.555 286.254 387.707 291.729 414.601 L 322.038 414.601 L 322.038 424.147 L 329.079 424.147 L 329.079 442.159 L 170.922 442.159 Z" style="fill: rgb(216, 216, 216); stroke: rgb(0, 0, 0);"/>
    
     <animate
             href="#shape1"
             attributeName="d"
             dur="5"
             repeatCount="indefinite"
             begin="0"
             values="M 170.922 424.147 L 180.435 424.147 L 180.435 414.601 L 210.511 414.601 C 223.315 388.186 223.86 206.704 210.994 173.684 L 193.682 173.684 L 193.682 155.295 L 206.102 155.295 L 206.102 148.883 L 217.079 148.883 C 200.861 138.277 190.145 119.955 190.145 99.131 C 190.145 66.324 216.741 39.728 249.548 39.728 C 282.355 39.728 308.951 66.324 308.951 99.131 C 308.951 119.955 298.235 138.277 282.017 148.883 L 293.898 148.883 L 293.898 155.295 L 305.7 155.295 L 305.7 173.684 L 289.254 173.684 C 278.772 207.555 286.254 387.707 291.729 414.601 L 322.038 414.601 L 322.038 424.147 L 329.079 424.147 L 329.079 442.159 L 170.922 442.159 Z;
                     
             M 170.922 424.147 L 180.435 424.147 L 180.435 414.601 L 210.511 414.601 C 223.315 388.186 223.86 206.704 210.994 173.684 L 193.682 173.684 L 193.682 155.295 L 206.102 155.295 L 206.102 148.883 L 217.079 148.883 C 200.861 138.277 182.237 119.955 182.237 99.131 C 182.237 66.324 216.741 39.728 249.548 39.728 C 282.355 39.728 308.951 66.324 308.951 99.131 C 308.951 119.955 298.235 138.277 282.017 148.883 L 293.898 148.883 L 293.898 155.295 L 305.7 155.295 L 305.7 173.684 L 289.254 173.684 C 278.772 207.555 286.254 387.707 291.729 414.601 L 322.038 414.601 L 322.038 424.147 L 329.079 424.147 L 329.079 442.159 L 170.922 442.159 L 170.922 424.147 Z"
             />
    
</svg>